<?xml version="1.0" standalone="no"?><!DOCTYPE svg PUBLIC "-//W3C//DTD SVG 1.1//EN" "http://www.w3.org/Graphics/SVG/1.1/DTD/svg11.dtd"><svg t="1577681836411" class="icon" viewBox="0 0 1024 1024" version="1.1" xmlns="http://www.w3.org/2000/svg" p-id="1944" xmlns:xlink="http://www.w3.org/1999/xlink" width="200" height="200"><defs><style type="text/css"></style></defs><path d="M829.5 792.5l-193.1-193-0.1-0.1c-0.4-0.5-0.8-0.9-1.3-1.4-10.2-10.2-26.8-10.2-37 0-48.7 48.7-113.3 75.5-182.2 75.5-142 0-257.6-115.6-257.6-257.6 0-142 115.6-257.6 257.6-257.6 142 0 257.6 115.6 257.6 257.6 0 34.6-6.7 68.1-20 99.6-5.6 13.3 0.7 28.7 14 34.3 13.3 5.6 28.7-0.7 34.3-14 16-38 24.1-78.4 24.1-119.9 0-82.8-32.2-160.7-90.8-219.2-58.6-58.6-136.4-90.8-219.2-90.8s-160.7 32.2-219.2 90.8c-58.6 58.6-90.8 136.4-90.8 219.2s32.2 160.7 90.8 219.2 136.4 90.8 219.2 90.8c75.5 0 146.8-26.8 203.2-75.9l176.5 176.5c9.3 9.3 24.6 9.3 33.9 0 9.4-9.4 9.4-24.6 0.1-34z" p-id="1945" fill="#ffffff"></path></svg>