<?xml version="1.0" standalone="no"?><!DOCTYPE svg PUBLIC "-//W3C//DTD SVG 1.1//EN" "http://www.w3.org/Graphics/SVG/1.1/DTD/svg11.dtd"><svg t="1575285206206" class="icon" viewBox="0 0 1260 1024" version="1.1" xmlns="http://www.w3.org/2000/svg" p-id="2423" xmlns:xlink="http://www.w3.org/1999/xlink" width="246.09375" height="200"><defs><style type="text/css"></style></defs><path d="M1260.307692 1024H0V157.538462h354.461538V118.153846c0-43.323077 35.446154-118.153846 78.769231-118.153846h393.846154c43.323077 0 78.769231 74.830769 78.769231 118.153846v39.384616h354.461538v866.461538zM1181.538462 236.307692h-354.461539V118.153846c0-43.323077-35.446154-39.384615-78.769231-39.384615h-236.307692c-43.323077 0-78.769231-3.938462-78.769231 39.384615v118.153846H78.769231v708.923077h1102.769231V236.307692zM630.153846 315.076923a275.692308 275.692308 0 1 1-275.692308 275.692308 275.692308 275.692308 0 0 1 275.692308-275.692308z m0 472.615385a196.923077 196.923077 0 1 0-196.923077-196.923077 196.923077 196.923077 0 0 0 196.923077 196.923077z m0-275.692308a78.769231 78.769231 0 1 1-78.769231 78.769231 78.769231 78.769231 0 0 1 78.769231-78.769231z m413.538462-196.923077A59.076923 59.076923 0 1 1 984.615385 374.153846 59.076923 59.076923 0 0 1 1043.692308 315.076923z" p-id="2424" fill="#ffffff"></path></svg>